# xmcd
#
# Track frame offsets: 
#        150
#        12570
#        28775
#        40760
#        65252
#        75560
#        89197
#        106445
#        119700
#        133190
#        146665
#        156962
#        171390
#
# Disc length: 2329 seconds
#
# Revision: 1
# Processed by: cddbd v1.5.2PL0 Copyright (c) Steve Scherf et al.
# Submitted via: ExactAudioCopyFreeDBPlugin 1.0
#
DISCID=be09170d
DTITLE=Commander Cody and The Lost Planet Airmen - Sleazy Roadside Stori
DTITLE=es
DYEAR=1993
DGENRE=Country Rock
TTITLE0=Blue Suede Shoes
TTITLE1=Down And Out
TTITLE2=Nothin' Shakin'
TTITLE3=Milk Cow Blues
TTITLE4=What Made Milwaukee Famous?
TTITLE5=Hard Headed Woman
TTITLE6=Beat Me, Daddy, 8 To The Bar
TTITLE7=Wine Wine Wine
TTITLE8=Truck Driving Man
TTITLE9=Hot Rod Lincoln
TTITLE10=Lawdy Miss Clawdy
TTITLE11=Hey, Hey, Hey, Hey (2)
TTITLE12=Jailhouse Rock
EXTD=
EXTT0=
EXTT1=
EXTT2=
EXTT3=
EXTT4=
EXTT5=
EXTT6=
EXTT7=
EXTT8=
EXTT9=
EXTT10=
EXTT11=
EXTT12=
PLAYORDER=
